<svg xmlns="http://www.w3.org/2000/svg" style="display: none;">
    <symbol id="icon-menu-lines" viewBox="0 0 24 24" fill="none" stroke="currentColor" stroke-width="1.5" stroke-linecap="round" stroke-linejoin="round">
        <path d="M21 10h-6M21 6H3M21 14H3M21 18H9M7 6h0M7 14h0"/>
    </symbol>

    <symbol id="icon-arrows-swap" viewBox="0 0 24 24" fill="none" stroke="currentColor" stroke-width="1.5" stroke-linecap="round" stroke-linejoin="round">
        <polyline points="16 18 22 12 16 6"/>
        <polyline points="8 6 2 12 8 18"/>
        <line x1="12" y1="2" x2="12" y2="22"/>
    </symbol>

    <symbol id="icon-code-enhance" viewBox="0 0 24 24" fill="none" stroke="currentColor" stroke-width="1.5" stroke-linecap="round" stroke-linejoin="round">
        <path d="M14 9V5a3 3 0 0 0-3-3l-4 9v11h11.28a2 2 0 0 0 2-1.7l1.38-9a2 2 0 0 0-2-2.3zM7 22H4a2 2 0 0 1-2-2v-7a2 2 0 0 1 2-2h3"/>
    </symbol>

    <symbol id="icon-chart-bars" viewBox="0 0 24 24" fill="none" stroke="currentColor" stroke-width="1.5" stroke-linecap="round" stroke-linejoin="round">
        <path d="M12 20V10M18 20V4M6 20V16"/>
    </symbol>

    <symbol id="icon-shield-check" viewBox="0 0 24 24" fill="none" stroke="currentColor" stroke-width="1.5" stroke-linecap="round" stroke-linejoin="round">
        <path d="M12 22s8-4 8-10V5l-8-3-8 3v7c0 6 8 10 8 10z"/>
        <path d="m9 12 2 2 4-4"/>
    </symbol>

    <symbol id="icon-people-connect" viewBox="0 0 24 24" fill="none" stroke="currentColor" stroke-width="1.5" stroke-linecap="round" stroke-linejoin="round">
        <path d="M17 21v-2a4 4 0 0 0-4-4H5a4 4 0 0 0-4 4v2"/>
        <circle cx="9" cy="7" r="4"/>
        <path d="M23 21v-2a4 4 0 0 0-3-3.87"/>
        <path d="M16 3.13a4 4 0 0 1 0 7.75"/>
    </symbol>


</svg>
